<mxfile host="app.diagrams.net" modified="2022-12-20T07:28:39.996Z" agent="5.0 (Macintosh; Intel Mac OS X 10_15_7) AppleWebKit/537.36 (KHTML, like Gecko) Chrome/108.0.0.0 Safari/537.36" etag="21ehNyO3P5inA7Yg098X" version="20.5.2" type="github">
  <diagram id="igIkLWl_I8CNIf3-y0DH" name="第 1 页">
    <mxGraphModel dx="1018" dy="585" grid="1" gridSize="10" guides="1" tooltips="1" connect="1" arrows="1" fold="1" page="1" pageScale="1" pageWidth="827" pageHeight="1169" math="0" shadow="0">
      <root>
        <mxCell id="0" />
        <mxCell id="1" parent="0" />
        <mxCell id="1S4eVNWtwclJiUYLLemy-1" value="CDP对接SMC" style="rounded=0;whiteSpace=wrap;html=1;" parent="1" vertex="1">
          <mxGeometry x="490" y="90" width="120" height="30" as="geometry" />
        </mxCell>
        <mxCell id="1S4eVNWtwclJiUYLLemy-2" value="创建cdp&lt;br&gt;人群" style="rounded=0;whiteSpace=wrap;html=1;" parent="1" vertex="1">
          <mxGeometry x="270" y="170" width="40" height="120" as="geometry" />
        </mxCell>
        <mxCell id="1S4eVNWtwclJiUYLLemy-3" value="推送&lt;br&gt;数据" style="rounded=0;whiteSpace=wrap;html=1;" parent="1" vertex="1">
          <mxGeometry x="870" y="170" width="40" height="120" as="geometry" />
        </mxCell>
        <mxCell id="1S4eVNWtwclJiUYLLemy-4" value="处理&lt;br&gt;人群&lt;br&gt;数据" style="rounded=0;whiteSpace=wrap;html=1;" parent="1" vertex="1">
          <mxGeometry x="530" y="170" width="40" height="120" as="geometry" />
        </mxCell>
        <mxCell id="1S4eVNWtwclJiUYLLemy-8" value="" style="endArrow=classic;html=1;rounded=0;exitX=0.5;exitY=1;exitDx=0;exitDy=0;entryX=0.5;entryY=0;entryDx=0;entryDy=0;edgeStyle=elbowEdgeStyle;elbow=vertical;" parent="1" source="1S4eVNWtwclJiUYLLemy-1" target="1S4eVNWtwclJiUYLLemy-2" edge="1">
          <mxGeometry width="50" height="50" relative="1" as="geometry">
            <mxPoint x="170" y="220" as="sourcePoint" />
            <mxPoint x="220" y="170" as="targetPoint" />
          </mxGeometry>
        </mxCell>
        <mxCell id="1S4eVNWtwclJiUYLLemy-9" value="" style="endArrow=classic;html=1;rounded=0;entryX=0.5;entryY=0;entryDx=0;entryDy=0;exitX=0.5;exitY=1;exitDx=0;exitDy=0;edgeStyle=elbowEdgeStyle;elbow=vertical;" parent="1" source="1S4eVNWtwclJiUYLLemy-1" target="1S4eVNWtwclJiUYLLemy-3" edge="1">
          <mxGeometry width="50" height="50" relative="1" as="geometry">
            <mxPoint x="400" y="130" as="sourcePoint" />
            <mxPoint x="430" y="230" as="targetPoint" />
          </mxGeometry>
        </mxCell>
        <mxCell id="1S4eVNWtwclJiUYLLemy-10" value="" style="endArrow=classic;html=1;rounded=0;entryX=0.5;entryY=0;entryDx=0;entryDy=0;exitX=0.5;exitY=1;exitDx=0;exitDy=0;" parent="1" source="1S4eVNWtwclJiUYLLemy-1" target="1S4eVNWtwclJiUYLLemy-4" edge="1">
          <mxGeometry width="50" height="50" relative="1" as="geometry">
            <mxPoint x="360" y="280" as="sourcePoint" />
            <mxPoint x="420" y="170" as="targetPoint" />
          </mxGeometry>
        </mxCell>
        <mxCell id="1S4eVNWtwclJiUYLLemy-15" value="a&lt;br&gt;z&lt;br&gt;k&lt;br&gt;a&lt;br&gt;b&lt;br&gt;a&lt;br&gt;n" style="rounded=0;whiteSpace=wrap;html=1;" parent="1" vertex="1">
          <mxGeometry x="620" y="340" width="40" height="120" as="geometry" />
        </mxCell>
        <mxCell id="1S4eVNWtwclJiUYLLemy-17" value="推&lt;br&gt;送&lt;br&gt;明&lt;br&gt;细&lt;br&gt;管&lt;br&gt;理" style="rounded=0;whiteSpace=wrap;html=1;" parent="1" vertex="1">
          <mxGeometry x="920" y="350" width="40" height="120" as="geometry" />
        </mxCell>
        <mxCell id="1S4eVNWtwclJiUYLLemy-19" value="spark" style="rounded=0;whiteSpace=wrap;html=1;" parent="1" vertex="1">
          <mxGeometry x="490" y="340" width="40" height="120" as="geometry" />
        </mxCell>
        <mxCell id="1S4eVNWtwclJiUYLLemy-20" value="服&lt;br&gt;务&lt;br&gt;端" style="rounded=0;whiteSpace=wrap;html=1;" parent="1" vertex="1">
          <mxGeometry x="787" y="350" width="40" height="120" as="geometry" />
        </mxCell>
        <mxCell id="1S4eVNWtwclJiUYLLemy-35" value="获取人群推送条件" style="rounded=0;whiteSpace=wrap;html=1;" parent="1" vertex="1">
          <mxGeometry x="310" y="520" width="30" height="120" as="geometry" />
        </mxCell>
        <mxCell id="1S4eVNWtwclJiUYLLemy-36" value="权限验证" style="rounded=0;whiteSpace=wrap;html=1;" parent="1" vertex="1">
          <mxGeometry x="350" y="520" width="30" height="120" as="geometry" />
        </mxCell>
        <mxCell id="1S4eVNWtwclJiUYLLemy-37" value="发起人群计算任务" style="rounded=0;whiteSpace=wrap;html=1;" parent="1" vertex="1">
          <mxGeometry x="390" y="520" width="30" height="120" as="geometry" />
        </mxCell>
        <mxCell id="1S4eVNWtwclJiUYLLemy-38" value="人群计算" style="rounded=0;whiteSpace=wrap;html=1;" parent="1" vertex="1">
          <mxGeometry x="450" y="520" width="30" height="120" as="geometry" />
        </mxCell>
        <mxCell id="1S4eVNWtwclJiUYLLemy-39" value="by设备类型生成文件" style="rounded=0;whiteSpace=wrap;html=1;" parent="1" vertex="1">
          <mxGeometry x="495" y="520" width="30" height="120" as="geometry" />
        </mxCell>
        <mxCell id="1S4eVNWtwclJiUYLLemy-40" value="返回计算成功标志" style="rounded=0;whiteSpace=wrap;html=1;" parent="1" vertex="1">
          <mxGeometry x="540" y="520" width="30" height="120" as="geometry" />
        </mxCell>
        <mxCell id="1S4eVNWtwclJiUYLLemy-41" value="任务调度" style="rounded=0;whiteSpace=wrap;html=1;" parent="1" vertex="1">
          <mxGeometry x="610" y="520" width="30" height="120" as="geometry" />
        </mxCell>
        <mxCell id="1S4eVNWtwclJiUYLLemy-42" value="分配计算资源" style="rounded=0;whiteSpace=wrap;html=1;" parent="1" vertex="1">
          <mxGeometry x="650" y="520" width="30" height="120" as="geometry" />
        </mxCell>
        <mxCell id="1S4eVNWtwclJiUYLLemy-47" value="同步smc账号" style="rounded=0;whiteSpace=wrap;html=1;" parent="1" vertex="1">
          <mxGeometry x="720" y="520" width="30" height="120" as="geometry" />
        </mxCell>
        <mxCell id="1S4eVNWtwclJiUYLLemy-48" value="获取待推送的数据" style="rounded=0;whiteSpace=wrap;html=1;" parent="1" vertex="1">
          <mxGeometry x="760" y="520" width="30" height="120" as="geometry" />
        </mxCell>
        <mxCell id="1S4eVNWtwclJiUYLLemy-49" value="获取推送的组织ID" style="rounded=0;whiteSpace=wrap;html=1;" parent="1" vertex="1">
          <mxGeometry x="800" y="520" width="30" height="120" as="geometry" />
        </mxCell>
        <mxCell id="1S4eVNWtwclJiUYLLemy-50" value="推送数据" style="rounded=0;whiteSpace=wrap;html=1;" parent="1" vertex="1">
          <mxGeometry x="840" y="520" width="30" height="120" as="geometry" />
        </mxCell>
        <mxCell id="1S4eVNWtwclJiUYLLemy-51" value="接收数据" style="rounded=0;whiteSpace=wrap;html=1;" parent="1" vertex="1">
          <mxGeometry x="900" y="520" width="30" height="120" as="geometry" />
        </mxCell>
        <mxCell id="1S4eVNWtwclJiUYLLemy-53" value="人群计算" style="rounded=0;whiteSpace=wrap;html=1;" parent="1" vertex="1">
          <mxGeometry x="950" y="520" width="30" height="120" as="geometry" />
        </mxCell>
        <mxCell id="1S4eVNWtwclJiUYLLemy-56" value="" style="endArrow=none;html=1;rounded=0;fontFamily=Helvetica;fontSize=12;entryX=0.5;entryY=1;entryDx=0;entryDy=0;exitX=0.5;exitY=0;exitDx=0;exitDy=0;edgeStyle=elbowEdgeStyle;elbow=vertical;" parent="1" source="1S4eVNWtwclJiUYLLemy-19" target="1S4eVNWtwclJiUYLLemy-4" edge="1">
          <mxGeometry width="50" height="50" relative="1" as="geometry">
            <mxPoint x="290" y="360" as="sourcePoint" />
            <mxPoint x="210" y="310" as="targetPoint" />
          </mxGeometry>
        </mxCell>
        <mxCell id="1S4eVNWtwclJiUYLLemy-57" value="" style="endArrow=none;html=1;rounded=0;fontFamily=Helvetica;fontSize=12;exitX=0.5;exitY=1;exitDx=0;exitDy=0;entryX=0.5;entryY=0;entryDx=0;entryDy=0;edgeStyle=elbowEdgeStyle;elbow=vertical;" parent="1" source="1S4eVNWtwclJiUYLLemy-4" target="1S4eVNWtwclJiUYLLemy-15" edge="1">
          <mxGeometry width="50" height="50" relative="1" as="geometry">
            <mxPoint x="300" y="370" as="sourcePoint" />
            <mxPoint x="190" y="290" as="targetPoint" />
          </mxGeometry>
        </mxCell>
        <mxCell id="1S4eVNWtwclJiUYLLemy-58" value="" style="endArrow=none;html=1;rounded=0;fontFamily=Helvetica;fontSize=12;entryX=0.5;entryY=1;entryDx=0;entryDy=0;exitX=0.5;exitY=0;exitDx=0;exitDy=0;edgeStyle=elbowEdgeStyle;elbow=vertical;" parent="1" source="1S4eVNWtwclJiUYLLemy-20" target="1S4eVNWtwclJiUYLLemy-3" edge="1">
          <mxGeometry width="50" height="50" relative="1" as="geometry">
            <mxPoint x="310" y="380" as="sourcePoint" />
            <mxPoint x="230" y="330" as="targetPoint" />
          </mxGeometry>
        </mxCell>
        <mxCell id="1S4eVNWtwclJiUYLLemy-59" value="" style="endArrow=none;html=1;rounded=0;fontFamily=Helvetica;fontSize=12;entryX=0.5;entryY=1;entryDx=0;entryDy=0;exitX=0.5;exitY=0;exitDx=0;exitDy=0;edgeStyle=elbowEdgeStyle;elbow=vertical;" parent="1" source="1S4eVNWtwclJiUYLLemy-17" target="1S4eVNWtwclJiUYLLemy-3" edge="1">
          <mxGeometry width="50" height="50" relative="1" as="geometry">
            <mxPoint x="320" y="390" as="sourcePoint" />
            <mxPoint x="240" y="340" as="targetPoint" />
          </mxGeometry>
        </mxCell>
        <mxCell id="1S4eVNWtwclJiUYLLemy-68" value="" style="endArrow=none;html=1;rounded=0;fontFamily=Helvetica;fontSize=12;entryX=0.5;entryY=1;entryDx=0;entryDy=0;exitX=0.5;exitY=0;exitDx=0;exitDy=0;edgeStyle=elbowEdgeStyle;elbow=vertical;" parent="1" source="1S4eVNWtwclJiUYLLemy-35" edge="1" target="fb7UXYP9iw3h1oGfnjrh-1">
          <mxGeometry width="50" height="50" relative="1" as="geometry">
            <mxPoint x="400" y="520" as="sourcePoint" />
            <mxPoint x="470" y="460" as="targetPoint" />
          </mxGeometry>
        </mxCell>
        <mxCell id="1S4eVNWtwclJiUYLLemy-81" value="" style="endArrow=none;html=1;rounded=0;fontFamily=Helvetica;fontSize=12;edgeStyle=elbowEdgeStyle;elbow=vertical;entryX=0.5;entryY=1;entryDx=0;entryDy=0;exitX=0.5;exitY=0;exitDx=0;exitDy=0;" parent="1" target="fb7UXYP9iw3h1oGfnjrh-1" edge="1" source="1S4eVNWtwclJiUYLLemy-36">
          <mxGeometry width="50" height="50" relative="1" as="geometry">
            <mxPoint x="419.40999999999985" y="520" as="sourcePoint" />
            <mxPoint x="419.40999999999985" y="460" as="targetPoint" />
          </mxGeometry>
        </mxCell>
        <mxCell id="1S4eVNWtwclJiUYLLemy-82" value="" style="endArrow=none;html=1;rounded=0;fontFamily=Helvetica;fontSize=12;edgeStyle=elbowEdgeStyle;elbow=vertical;entryX=0.5;entryY=1;entryDx=0;entryDy=0;exitX=0.5;exitY=0;exitDx=0;exitDy=0;" parent="1" target="fb7UXYP9iw3h1oGfnjrh-1" edge="1" source="1S4eVNWtwclJiUYLLemy-37">
          <mxGeometry width="50" height="50" relative="1" as="geometry">
            <mxPoint x="449.40999999999985" y="520" as="sourcePoint" />
            <mxPoint x="449.40999999999985" y="460" as="targetPoint" />
          </mxGeometry>
        </mxCell>
        <mxCell id="1S4eVNWtwclJiUYLLemy-83" value="" style="endArrow=none;html=1;rounded=0;fontFamily=Helvetica;fontSize=12;edgeStyle=elbowEdgeStyle;elbow=vertical;exitX=0.5;exitY=0;exitDx=0;exitDy=0;entryX=0.5;entryY=1;entryDx=0;entryDy=0;" parent="1" edge="1" target="1S4eVNWtwclJiUYLLemy-19" source="1S4eVNWtwclJiUYLLemy-38">
          <mxGeometry width="50" height="50" relative="1" as="geometry">
            <mxPoint x="480" y="520" as="sourcePoint" />
            <mxPoint x="470" y="450" as="targetPoint" />
          </mxGeometry>
        </mxCell>
        <mxCell id="1S4eVNWtwclJiUYLLemy-84" value="" style="endArrow=none;html=1;rounded=0;fontFamily=Helvetica;fontSize=12;edgeStyle=elbowEdgeStyle;elbow=vertical;entryX=0.5;entryY=1;entryDx=0;entryDy=0;" parent="1" edge="1" target="1S4eVNWtwclJiUYLLemy-19">
          <mxGeometry width="50" height="50" relative="1" as="geometry">
            <mxPoint x="509.40999999999985" y="520" as="sourcePoint" />
            <mxPoint x="470" y="460" as="targetPoint" />
            <Array as="points">
              <mxPoint x="490" y="480" />
            </Array>
          </mxGeometry>
        </mxCell>
        <mxCell id="1S4eVNWtwclJiUYLLemy-85" value="" style="endArrow=none;html=1;rounded=0;fontFamily=Helvetica;fontSize=12;edgeStyle=elbowEdgeStyle;elbow=vertical;entryX=0.5;entryY=1;entryDx=0;entryDy=0;exitX=0.5;exitY=0;exitDx=0;exitDy=0;" parent="1" target="1S4eVNWtwclJiUYLLemy-19" edge="1" source="1S4eVNWtwclJiUYLLemy-40">
          <mxGeometry width="50" height="50" relative="1" as="geometry">
            <mxPoint x="539.4099999999999" y="520" as="sourcePoint" />
            <mxPoint x="539.4099999999999" y="460" as="targetPoint" />
          </mxGeometry>
        </mxCell>
        <mxCell id="1S4eVNWtwclJiUYLLemy-86" value="" style="endArrow=none;html=1;rounded=0;fontFamily=Helvetica;fontSize=12;edgeStyle=elbowEdgeStyle;elbow=vertical;entryX=0.5;entryY=1;entryDx=0;entryDy=0;exitX=0.5;exitY=0;exitDx=0;exitDy=0;" parent="1" target="1S4eVNWtwclJiUYLLemy-15" edge="1" source="1S4eVNWtwclJiUYLLemy-41">
          <mxGeometry width="50" height="50" relative="1" as="geometry">
            <mxPoint x="569.4099999999999" y="520" as="sourcePoint" />
            <mxPoint x="569.4099999999999" y="460" as="targetPoint" />
          </mxGeometry>
        </mxCell>
        <mxCell id="1S4eVNWtwclJiUYLLemy-87" value="" style="endArrow=none;html=1;rounded=0;fontFamily=Helvetica;fontSize=12;edgeStyle=elbowEdgeStyle;elbow=vertical;entryX=0.5;entryY=1;entryDx=0;entryDy=0;exitX=0.25;exitY=0;exitDx=0;exitDy=0;" parent="1" target="1S4eVNWtwclJiUYLLemy-15" edge="1" source="1S4eVNWtwclJiUYLLemy-42">
          <mxGeometry width="50" height="50" relative="1" as="geometry">
            <mxPoint x="599.4099999999999" y="520" as="sourcePoint" />
            <mxPoint x="599.4099999999999" y="460" as="targetPoint" />
          </mxGeometry>
        </mxCell>
        <mxCell id="1S4eVNWtwclJiUYLLemy-92" value="" style="endArrow=none;html=1;rounded=0;fontFamily=Helvetica;fontSize=12;edgeStyle=elbowEdgeStyle;elbow=vertical;entryX=0.5;entryY=1;entryDx=0;entryDy=0;exitX=0.5;exitY=0;exitDx=0;exitDy=0;" parent="1" target="1S4eVNWtwclJiUYLLemy-20" edge="1" source="1S4eVNWtwclJiUYLLemy-47">
          <mxGeometry width="50" height="50" relative="1" as="geometry">
            <mxPoint x="759.4099999999999" y="520" as="sourcePoint" />
            <mxPoint x="759.4099999999999" y="460" as="targetPoint" />
            <Array as="points">
              <mxPoint x="800" y="480" />
            </Array>
          </mxGeometry>
        </mxCell>
        <mxCell id="1S4eVNWtwclJiUYLLemy-93" value="" style="endArrow=none;html=1;rounded=0;fontFamily=Helvetica;fontSize=12;edgeStyle=elbowEdgeStyle;elbow=vertical;entryX=0.5;entryY=1;entryDx=0;entryDy=0;exitX=0.5;exitY=0;exitDx=0;exitDy=0;" parent="1" target="1S4eVNWtwclJiUYLLemy-20" edge="1" source="1S4eVNWtwclJiUYLLemy-48">
          <mxGeometry width="50" height="50" relative="1" as="geometry">
            <mxPoint x="789.4099999999999" y="520" as="sourcePoint" />
            <mxPoint x="789.4099999999999" y="460" as="targetPoint" />
            <Array as="points">
              <mxPoint x="810" y="480" />
            </Array>
          </mxGeometry>
        </mxCell>
        <mxCell id="1S4eVNWtwclJiUYLLemy-94" value="" style="endArrow=none;html=1;rounded=0;fontFamily=Helvetica;fontSize=12;edgeStyle=elbowEdgeStyle;elbow=vertical;entryX=0.5;entryY=1;entryDx=0;entryDy=0;exitX=0.5;exitY=0;exitDx=0;exitDy=0;" parent="1" target="1S4eVNWtwclJiUYLLemy-20" edge="1" source="1S4eVNWtwclJiUYLLemy-49">
          <mxGeometry width="50" height="50" relative="1" as="geometry">
            <mxPoint x="819.4099999999999" y="520" as="sourcePoint" />
            <mxPoint x="819.4099999999999" y="460" as="targetPoint" />
            <Array as="points">
              <mxPoint x="830" y="480" />
            </Array>
          </mxGeometry>
        </mxCell>
        <mxCell id="1S4eVNWtwclJiUYLLemy-95" value="" style="endArrow=none;html=1;rounded=0;fontFamily=Helvetica;fontSize=12;edgeStyle=elbowEdgeStyle;elbow=vertical;entryX=0.5;entryY=1;entryDx=0;entryDy=0;exitX=0.5;exitY=0;exitDx=0;exitDy=0;" parent="1" target="1S4eVNWtwclJiUYLLemy-20" edge="1" source="1S4eVNWtwclJiUYLLemy-50">
          <mxGeometry width="50" height="50" relative="1" as="geometry">
            <mxPoint x="849.4099999999999" y="520" as="sourcePoint" />
            <mxPoint x="849.4099999999999" y="460" as="targetPoint" />
            <Array as="points">
              <mxPoint x="840" y="480" />
            </Array>
          </mxGeometry>
        </mxCell>
        <mxCell id="1S4eVNWtwclJiUYLLemy-96" value="" style="endArrow=none;html=1;rounded=0;fontFamily=Helvetica;fontSize=12;edgeStyle=elbowEdgeStyle;elbow=vertical;entryX=0.5;entryY=1;entryDx=0;entryDy=0;exitX=0.5;exitY=0;exitDx=0;exitDy=0;" parent="1" target="1S4eVNWtwclJiUYLLemy-17" edge="1" source="1S4eVNWtwclJiUYLLemy-51">
          <mxGeometry width="50" height="50" relative="1" as="geometry">
            <mxPoint x="879.4099999999999" y="520" as="sourcePoint" />
            <mxPoint x="879.4099999999999" y="460" as="targetPoint" />
          </mxGeometry>
        </mxCell>
        <mxCell id="1S4eVNWtwclJiUYLLemy-98" value="" style="endArrow=none;html=1;rounded=0;fontFamily=Helvetica;fontSize=12;edgeStyle=elbowEdgeStyle;elbow=vertical;exitX=0.5;exitY=0;exitDx=0;exitDy=0;" parent="1" edge="1" source="1S4eVNWtwclJiUYLLemy-53">
          <mxGeometry width="50" height="50" relative="1" as="geometry">
            <mxPoint x="939.4099999999999" y="520" as="sourcePoint" />
            <mxPoint x="939.4099999999999" y="460" as="targetPoint" />
            <Array as="points" />
          </mxGeometry>
        </mxCell>
        <mxCell id="fb7UXYP9iw3h1oGfnjrh-1" value="服&lt;br&gt;务&lt;br&gt;端" style="rounded=0;whiteSpace=wrap;html=1;" vertex="1" parent="1">
          <mxGeometry x="345" y="340" width="40" height="120" as="geometry" />
        </mxCell>
        <mxCell id="fb7UXYP9iw3h1oGfnjrh-2" value="" style="endArrow=none;html=1;rounded=0;elbow=vertical;entryX=0.5;entryY=1;entryDx=0;entryDy=0;exitX=0.5;exitY=0;exitDx=0;exitDy=0;edgeStyle=elbowEdgeStyle;" edge="1" parent="1" source="fb7UXYP9iw3h1oGfnjrh-1" target="1S4eVNWtwclJiUYLLemy-4">
          <mxGeometry width="50" height="50" relative="1" as="geometry">
            <mxPoint x="490" y="410" as="sourcePoint" />
            <mxPoint x="540" y="360" as="targetPoint" />
          </mxGeometry>
        </mxCell>
      </root>
    </mxGraphModel>
  </diagram>
</mxfile>
